<?xml version="1.0" encoding="UTF-8" standalone="no"?>
<svg
   xmlns:dc="http://purl.org/dc/elements/1.1/"
   xmlns:cc="http://creativecommons.org/ns#"
   xmlns:rdf="http://www.w3.org/1999/02/22-rdf-syntax-ns#"
   xmlns:svg="http://www.w3.org/2000/svg"
   xmlns="http://www.w3.org/2000/svg"
   xmlns:sodipodi="http://sodipodi.sourceforge.net/DTD/sodipodi-0.dtd"
   xmlns:inkscape="http://www.inkscape.org/namespaces/inkscape"
   version="1.1"
   id="svg2"
   xml:space="preserve"
   width="576"
   height="536.15997"
   viewBox="0 0 576 536.15997"
   sodipodi:docname="zend-certified-php-Engineer.eps"><metadata
     id="metadata8"><rdf:RDF><cc:Work
         rdf:about=""><dc:format>image/svg+xml</dc:format><dc:type
           rdf:resource="http://purl.org/dc/dcmitype/StillImage" /></cc:Work></rdf:RDF></metadata><defs
     id="defs6"><clipPath
       clipPathUnits="userSpaceOnUse"
       id="clipPath26"><path
         d="m 3420.25,2290.92 c -426.43,0 -913,77.54 -1413.25,254.94 -247.22,87.68 -514.73,125.02 -780.23,125.02 -400.168,0 -795.93,-84.74 -1112.063,-209.71 V 3908.18 H 4206.53 V 2395.89 c -222.54,-67.5 -489.83,-104.97 -786.28,-104.97"
         id="path24" /></clipPath><linearGradient
       x1="0"
       y1="0"
       x2="1"
       y2="0"
       gradientUnits="userSpaceOnUse"
       gradientTransform="matrix(277.155,3167.9,3167.9,-277.155,2121.13,1880.58)"
       spreadMethod="pad"
       id="linearGradient32"><stop
         style="stop-opacity:1;stop-color:#00adef"
         offset="0"
         id="stop28" /><stop
         style="stop-opacity:1;stop-color:#ffffff"
         offset="1"
         id="stop30" /></linearGradient></defs><sodipodi:namedview
     pagecolor="#ffffff"
     bordercolor="#666666"
     borderopacity="1"
     objecttolerance="10"
     gridtolerance="10"
     guidetolerance="10"
     inkscape:pageopacity="0"
     inkscape:pageshadow="2"
     inkscape:window-width="640"
     inkscape:window-height="480"
     id="namedview4" /><g
     id="g10"
     inkscape:groupmode="layer"
     inkscape:label="ink_ext_XXXXXX"
     transform="matrix(1.3333333,0,0,-1.3333333,0,536.16)"><g
       id="g12"
       transform="scale(0.1)"><path
         d="M 0,0 H 4319.99 V 4021.15 H 0 Z"
         style="fill:#1f4570;fill-opacity:1;fill-rule:nonzero;stroke:none"
         id="path14" /><path
         d="m 55.1055,60.1211 h 4206.73 v 3902.08 H 55.1055 Z"
         style="fill:#ffffff;fill-opacity:1;fill-rule:nonzero;stroke:none"
         id="path16" /><path
         d="M 4206.53,124.641 H 114.707 V 2461.17 c 316.133,124.97 711.895,209.71 1112.063,209.71 265.5,0 533.01,-37.34 780.23,-125.02 500.25,-177.4 986.82,-254.94 1413.25,-254.94 296.45,0 563.74,37.47 786.28,104.97 V 124.641"
         style="fill:#00adef;fill-opacity:1;fill-rule:nonzero;stroke:none"
         id="path18" /><g
         id="g20"><g
           id="g22"
           clip-path="url(#clipPath26)"><path
             d="m 3420.25,2290.92 c -426.43,0 -913,77.54 -1413.25,254.94 -247.22,87.68 -514.73,125.02 -780.23,125.02 -400.168,0 -795.93,-84.74 -1112.063,-209.71 V 3908.18 H 4206.53 V 2395.89 c -222.54,-67.5 -489.83,-104.97 -786.28,-104.97"
             style="fill:url(#linearGradient32);fill-opacity:1;fill-rule:nonzero;stroke:none"
             id="path34" /></g></g><g
         id="g36"
         transform="scale(10)"><text
           transform="matrix(0.99999,0,0,-1,77.241,151.681)"
           style="font-variant:normal;font-weight:500;font-size:51.6106px;font-family:ApexNew;-inkscape-font-specification:ApexNew-Medium;writing-mode:lr-tb;fill:#ffffff;fill-opacity:1;fill-rule:nonzero;stroke:none"
           id="text40"><tspan
             x="0 35.455944 69.776581 104.92293 138.77963 157.6685 190.90515 209.79402 244.11469"
             y="0"
             sodipodi:role="line"
             id="tspan38">CERTIFIED</tspan></text></g><g
         id="g42"
         transform="scale(10)"><text
           transform="matrix(1,0,0,-0.90909091,39.3086,79.6809)"
           style="font-variant:normal;font-weight:500;font-size:53.9px;font-family:ApexNew;-inkscape-font-specification:ApexNew-Medium;writing-mode:lr-tb;fill:#1f4570;fill-opacity:1;fill-rule:nonzero;stroke:none"
           id="text46"><tspan
             x="0 31.261999 66.296997 97.558998 108.339 138.79022 174.25642 209.34436 223.68175 259.14795 289.60007 320.05356"
             y="0"
             sodipodi:role="line"
             id="tspan44">PHP ENGINEER</tspan></text></g><path
         d="m 1420.86,2223.47 -72.19,92.28 c 0,0 -327.15,0 -337.49,0 6.4,8.56 409.23,538.92 409.23,538.92 H 826.367 l 71.231,-91.32 c 0,0 328.162,0 338.632,0 -6.43,-8.44 -411.054,-539.88 -411.054,-539.88 h 595.684"
         style="fill:#ffffff;fill-opacity:1;fill-rule:nonzero;stroke:none"
         id="path48" /><path
         d="M 2466.44,2854.67 H 2191.1 v -629.39 h 94.01 c 0,0 0,530.12 0,535.44 5.13,0 167.91,0 167.91,0 165.1,0 263.65,-75.17 263.65,-201.47 v -333.97 h 93.77 v 338.62 c 0,144.7 -106.41,290.77 -344,290.77"
         style="fill:#ffffff;fill-opacity:1;fill-rule:nonzero;stroke:none"
         id="path50" /><path
         d="m 3403.33,2760.84 v -443.7 c -5.2,0 -207.54,0 -207.54,0 -97.52,0 -189.51,75.26 -213.73,175.25 l -3.71,47.75 c 0,13.05 1.27,30.41 3.71,48.19 22.27,103.22 111.13,171.85 221.29,171.85 0,0 194.78,0.66 199.98,0.66 z m 11.37,273.35 c 0,0 -0.06,-174.5 -0.06,-179.52 -5.22,0 -216.8,0 -216.8,0 -158.81,0 -283.22,-104.25 -309.65,-259.53 -2.46,-20.16 -3.96,-39.37 -3.96,-55 0,-22.5 2.73,-44.94 3.96,-53.37 25.96,-152.82 156.04,-263.3 309.65,-263.3 l 299.44,-0.11 v 960.4 l -82.58,-149.57"
         style="fill:#ffffff;fill-opacity:1;fill-rule:nonzero;stroke:none"
         id="path52" /><path
         d="m 1521.84,2599.69 c 27.14,107.84 126.33,185.92 237.54,185.92 111.25,0 210.45,-78.08 237.64,-185.92 z m 573.4,-94.43 1.74,34.42 c 0,186.39 -151.38,337.72 -337.6,337.72 -186.04,0 -337.41,-151.33 -337.41,-337.61 0,-186.15 151.37,-337.44 337.41,-337.44 141.72,0 269.22,89.53 317.45,223.33 h -100.32 c -42.67,-81.15 -125.31,-131.41 -217.13,-131.41 -122.1,0 -225.55,90.66 -242.52,211.23 6.58,0 491.9,0 491.9,0 l 86.48,-0.24"
         style="fill:#ffffff;fill-opacity:1;fill-rule:nonzero;stroke:none"
         id="path54" /></g></g></svg>
