<?xml version="1.0" standalone="no"?>
<!DOCTYPE svg PUBLIC "-//W3C//DTD SVG 1.0//EN" "http://www.w3.org/TR/2001/REC-SVG-20010904/DTD/svg10.dtd">
<svg xmlns="http://www.w3.org/2000/svg" xmlns:xlink="http://www.w3.org/1999/xlink" id="body_1" width="51" height="38">

<g transform="matrix(0.29411766 0 0 0.29411766 -1.1029423 -98.82353)">
    <path d="M119.2 421.2C 134.5 412.80002 146.2 406.40002 147.2 405.90002C 150.4 404.2 153.7 399.7 147.2 396.2C 145.09999 395.1 133.8 388.90002 119.2 380.90002L119.2 380.90002L99.1 401.10004L119.2 421.2z" stroke="none" fill="#FFD400" fill-rule="nonzero" />
    <path d="M99.1 401.1L34.9 465.8C 36.4 466 38.100002 465.59998 40.100002 464.5C 44.300003 462.2 88.9 437.8 119.2 421.2L119.2 421.2L99.1 401.1z" stroke="none" fill="#FF3333" fill-rule="nonzero" />
    <path d="M99.1 401.1L119.2 380.9C 119.2 380.9 44.6 340.19998 40.1 337.8C 38.399998 336.8 36.5 336.5 34.8 336.8L34.8 336.8L99.1 401.1z" stroke="none" fill="#48FF48" fill-rule="nonzero" />
    <path d="M99.1 401.1L34.799995 336.8C 32.199997 337.4 29.999996 339.69998 29.999996 344.4C 29.999996 351.9 29.999996 451.9 29.999996 458.2C 29.999996 462.5 31.699997 465.6 34.899998 465.90002L34.899998 465.90002L99.1 401.1z" stroke="none" fill="#3BCCFF" fill-rule="nonzero" />
</g>
</svg>