<?xml version="1.0" standalone="no"?>
<!DOCTYPE svg PUBLIC "-//W3C//DTD SVG 1.0//EN" "http://www.w3.org/TR/2001/REC-SVG-20010904/DTD/svg10.dtd">
<svg xmlns="http://www.w3.org/2000/svg" xmlns:xlink="http://www.w3.org/1999/xlink" id="body_1" width="50" height="50">

<g transform="matrix(2.0833335 0 0 2.0833335 0 0)">
    <path d="M12 0C 5.374 0 0 5.373 0 12C 0 17.302 3.438 21.8 8.207 23.387001C 8.806 23.498001 9 23.126001 9 22.810001L9 22.810001L9 20.576002C 5.6619997 21.302002 4.967 19.160002 4.967 19.160002C 4.421 17.773003 3.634 17.404001 3.634 17.404001C 2.545 16.659 3.717 16.675001 3.717 16.675001C 4.922 16.759 5.5559998 17.912 5.5559998 17.912C 6.626 19.746 8.363 19.216002 9.048 18.909C 9.155001 18.134 9.466001 17.604 9.81 17.305C 7.1450005 17 4.3430004 15.971001 4.3430004 11.374001C 4.3430004 10.063001 4.8120003 8.993 5.5790005 8.153001C 5.4550004 7.850001 5.0440006 6.6290007 5.6960006 4.9770007C 5.6960006 4.9770007 6.7040005 4.6550007 8.997001 6.2070007C 9.954 5.941001 10.9800005 5.8080006 12.000001 5.803001C 13.02 5.808001 14.047001 5.941001 15.0060005 6.2070007C 17.297 4.6550007 18.303001 4.9770007 18.303001 4.9770007C 18.956001 6.6300006 18.545002 7.851001 18.421001 8.153001C 19.191002 8.993001 19.656002 10.064001 19.656002 11.374001C 19.656002 15.983001 16.849003 16.998001 14.177002 17.295C 14.607002 17.667 15.000002 18.397 15.000002 19.517L15.000002 19.517L15.000002 22.81C 15.000002 23.129 15.192002 23.504 15.801002 23.386C 20.566002 21.796999 24.000002 17.3 24.000002 12C 24.000002 5.373 18.627003 0 12.000002 0L12.000002 0L12 0z" stroke="none" fill="#000000" fill-rule="nonzero" />
</g>
</svg>